<svg width="1558" height="342" viewBox="0 0 1558 342" fill="none" xmlns="http://www.w3.org/2000/svg">
<path fill-rule="evenodd" clip-rule="evenodd" d="M120.392 101.045L21.6084 202.092C9.2631 189.46 1.54522 172.094 0 151.567C0 132.623 9.26105 113.676 21.6084 101.045L121.937 0C134.284 12.6316 142 31.576 142 50.5224C142 69.4688 132.741 88.4152 120.394 101.045H120.392ZM163.846 240.955L263.711 139.908C276.196 154.118 284 171.486 284 190.431C284 209.377 274.634 228.324 262.154 240.955L162.285 342C149.802 329.368 142 310.422 142 291.478C142 272.531 151.361 253.585 163.846 240.955V240.955ZM161.397 101.045L190.883 71.5088L263.824 0C276.239 12.4367 283.998 31.0917 283.998 49.7466C283.998 68.4016 274.688 87.0546 262.271 99.4912L190.883 171L161.397 200.536L119.498 242.509L90.0119 272.045L20.1759 342C7.75887 329.563 0 310.908 0 292.253C0 273.598 9.31228 254.943 21.7273 242.509L91.5633 172.554L119.496 143.018L161.397 101.045Z" fill="#1292EE"/>
<path d="M347.485 211.32H352.1V255H347.485V211.32ZM380.439 247.59L379.984 233.225V211.32H384.599V255H379.269L370.299 232.38C369.952 231.47 368.241 226.942 365.164 218.795L365.554 233.095V255H361.069V211.32H366.399C373.289 228.827 377.969 240.917 380.439 247.59ZM393.569 211.32H411.964V215.415H398.184V231.795H411.249V235.955H398.184V255H393.569V211.32ZM434.46 221.07C434.46 216.953 432.315 214.895 428.025 214.895C423.778 214.895 421.655 216.953 421.655 221.07V245.25C421.655 249.41 423.778 251.49 428.025 251.49C432.315 251.49 434.46 249.41 434.46 245.25V221.07ZM417.04 221.005C417.04 217.928 417.972 215.437 419.835 213.53C421.698 211.623 424.428 210.67 428.025 210.67C431.665 210.67 434.417 211.623 436.28 213.53C438.143 215.437 439.075 217.928 439.075 221.005V245.38C439.075 248.457 438.143 250.948 436.28 252.855C434.417 254.718 431.665 255.65 428.025 255.65C424.385 255.65 421.633 254.718 419.77 252.855C417.95 250.948 417.04 248.457 417.04 245.38V221.005ZM458.447 237.45H452.012V255H447.397V211.32H457.992C461.459 211.32 464.08 212.208 465.857 213.985C467.634 215.718 468.522 218.102 468.522 221.135V227.57C468.522 232.25 466.659 235.283 462.932 236.67L469.887 255H464.817L458.447 237.45ZM452.012 233.42H457.797C461.87 233.42 463.907 231.448 463.907 227.505V221.33C463.907 217.387 461.87 215.415 457.797 215.415H452.012V233.42ZM507.849 211.32V255H503.429V231.99C503.429 227.527 503.559 223.215 503.819 219.055L494.914 243.365H490.039L481.004 219.055C481.307 223.085 481.459 227.375 481.459 231.925V255H477.104V211.32H482.564L492.444 238.685L502.324 211.32H507.849ZM535.105 255L532.44 242.78H520.74L518.075 255H513.46L523.34 211.32H529.84L539.72 255H535.105ZM521.585 238.75H531.53L526.525 215.805L521.585 238.75ZM555.936 257.6C557.236 257.687 558.298 258.098 559.121 258.835C559.945 259.572 560.356 260.655 560.356 262.085C560.356 263.558 559.815 264.707 558.731 265.53C557.648 266.397 556.348 266.83 554.831 266.83C553.358 266.83 552.188 266.678 551.321 266.375V263.775C552.058 264.078 552.99 264.23 554.116 264.23C556.326 264.23 557.431 263.428 557.431 261.825C557.431 260.265 556.283 259.485 553.986 259.485H553.141L553.986 255.195C547.79 254.588 544.691 251.555 544.691 246.095V220.225C544.691 214.072 548.591 210.995 556.391 210.995C558.905 210.995 561.418 211.342 563.931 212.035V216.325C561.375 215.588 558.818 215.22 556.261 215.22C553.705 215.22 551.906 215.675 550.866 216.585C549.826 217.452 549.306 218.752 549.306 220.485V245.9C549.306 247.59 549.826 248.89 550.866 249.8C551.95 250.667 553.813 251.1 556.456 251.1C559.143 251.1 561.678 250.753 564.061 250.06V254.285C561.895 254.978 559.36 255.325 556.456 255.325L555.936 257.6ZM586.068 202.22H589.318V203.13C589.318 204.647 588.949 205.838 588.213 206.705C587.476 207.528 586.479 207.94 585.223 207.94C584.009 207.94 582.666 207.507 581.193 206.64C579.719 205.773 578.658 205.34 578.008 205.34C577.011 205.34 576.513 206.012 576.513 207.355V208.07H573.263V207.225C573.263 205.752 573.631 204.582 574.368 203.715C575.104 202.805 576.123 202.35 577.423 202.35C578.723 202.35 580.131 202.805 581.648 203.715C583.164 204.582 584.161 205.015 584.638 205.015C585.591 205.015 586.068 204.322 586.068 202.935V202.22ZM587.693 221.07C587.693 216.953 585.548 214.895 581.258 214.895C577.011 214.895 574.888 216.953 574.888 221.07V245.25C574.888 249.41 577.011 251.49 581.258 251.49C585.548 251.49 587.693 249.41 587.693 245.25V221.07ZM570.273 221.005C570.273 217.928 571.204 215.437 573.068 213.53C574.931 211.623 577.661 210.67 581.258 210.67C584.898 210.67 587.649 211.623 589.513 213.53C591.376 215.437 592.308 217.928 592.308 221.005V245.38C592.308 248.457 591.376 250.948 589.513 252.855C587.649 254.718 584.898 255.65 581.258 255.65C577.618 255.65 574.866 254.718 573.003 252.855C571.183 250.948 570.273 248.457 570.273 245.38V221.005ZM600.63 211.32H619.545V215.415H605.245V230.95H617.725V235.045H605.245V250.905H619.545V255H600.63V211.32ZM623.799 220.16C623.799 217.3 624.753 215.068 626.659 213.465C628.566 211.818 631.231 210.995 634.654 210.995C638.121 210.995 641.046 211.363 643.429 212.1V216.52C641.176 215.697 638.424 215.285 635.174 215.285C630.711 215.285 628.479 216.975 628.479 220.355V223.475C628.479 224.992 628.761 226.183 629.324 227.05C629.931 227.917 630.928 228.74 632.314 229.52L639.854 233.745C643.364 235.652 645.119 238.533 645.119 242.39V245.9C645.119 248.89 644.101 251.208 642.064 252.855C640.028 254.502 637.081 255.325 633.224 255.325C629.411 255.325 626.378 254.892 624.124 254.025V249.605C626.681 250.558 629.584 251.035 632.834 251.035C637.948 251.035 640.504 249.237 640.504 245.64V242.91C640.504 241.48 640.244 240.353 639.724 239.53C639.204 238.707 638.273 237.927 636.929 237.19L629.454 233.095C625.684 231.058 623.799 228.025 623.799 223.995V220.16ZM680.489 221.395C680.489 217.408 678.431 215.415 674.314 215.415H668.594V235.89H674.314C678.431 235.89 680.489 233.918 680.489 229.975V221.395ZM663.979 211.32H674.574C677.997 211.32 680.597 212.208 682.374 213.985C684.194 215.762 685.104 218.145 685.104 221.135V230.17C685.104 233.203 684.216 235.608 682.439 237.385C680.662 239.118 678.041 239.985 674.574 239.985H668.594V255H663.979V211.32ZM710.809 255L708.144 242.78H696.444L693.779 255H689.164L699.044 211.32H705.544L715.424 255H710.809ZM697.289 238.75H707.234L702.229 215.805L697.289 238.75ZM732.095 237.45H725.66V255H721.045V211.32H731.64C735.106 211.32 737.728 212.208 739.505 213.985C741.281 215.718 742.17 218.102 742.17 221.135V227.57C742.17 232.25 740.306 235.283 736.58 236.67L743.535 255H738.465L732.095 237.45ZM725.66 233.42H731.445C735.518 233.42 737.555 231.448 737.555 227.505V221.33C737.555 217.387 735.518 215.415 731.445 215.415H725.66V233.42ZM769.017 255L766.352 242.78H754.652L751.987 255H747.372L757.252 211.32H763.752L773.632 255H769.017ZM755.497 238.75H765.442L760.437 215.805L755.497 238.75ZM808.077 221.395C808.077 217.408 806.019 215.415 801.902 215.415H796.182V235.89H801.902C806.019 235.89 808.077 233.918 808.077 229.975V221.395ZM791.567 211.32H802.162C805.585 211.32 808.185 212.208 809.962 213.985C811.782 215.762 812.692 218.145 812.692 221.135V230.17C812.692 233.203 811.804 235.608 810.027 237.385C808.25 239.118 805.629 239.985 802.162 239.985H796.182V255H791.567V211.32ZM831.181 237.45H824.746V255H820.131V211.32H830.726C834.193 211.32 836.815 212.208 838.591 213.985C840.368 215.718 841.256 218.102 841.256 221.135V227.57C841.256 232.25 839.393 235.283 835.666 236.67L842.621 255H837.551L831.181 237.45ZM824.746 233.42H830.531C834.605 233.42 836.641 231.448 836.641 227.505V221.33C836.641 217.387 834.605 215.415 830.531 215.415H824.746V233.42ZM849.839 211.32H868.754V215.415H854.454V230.95H866.934V235.045H854.454V250.905H868.754V255H849.839V211.32ZM892.833 211.32H897.643L888.088 255H881.588L872.033 211.32H876.778L881.393 233.03C883.04 241.74 884.188 247.568 884.838 250.515C885.185 248.782 885.77 245.792 886.593 241.545C887.503 236.908 889.583 226.833 892.833 211.32ZM902.905 211.32H921.82V215.415H907.52V230.95H920V235.045H907.52V250.905H921.82V255H902.905V211.32ZM948.11 247.59L947.655 233.225V211.32H952.27V255H946.94L937.97 232.38C937.623 231.47 935.912 226.942 932.835 218.795L933.225 233.095V255H928.74V211.32H934.07C940.96 228.827 945.64 240.917 948.11 247.59ZM971.835 257.6C973.135 257.687 974.197 258.098 975.02 258.835C975.843 259.572 976.255 260.655 976.255 262.085C976.255 263.558 975.713 264.707 974.63 265.53C973.547 266.397 972.247 266.83 970.73 266.83C969.257 266.83 968.087 266.678 967.22 266.375V263.775C967.957 264.078 968.888 264.23 970.015 264.23C972.225 264.23 973.33 263.428 973.33 261.825C973.33 260.265 972.182 259.485 969.885 259.485H969.04L969.885 255.195C963.688 254.588 960.59 251.555 960.59 246.095V220.225C960.59 214.072 964.49 210.995 972.29 210.995C974.803 210.995 977.317 211.342 979.83 212.035V216.325C977.273 215.588 974.717 215.22 972.16 215.22C969.603 215.22 967.805 215.675 966.765 216.585C965.725 217.452 965.205 218.752 965.205 220.485V245.9C965.205 247.59 965.725 248.89 966.765 249.8C967.848 250.667 969.712 251.1 972.355 251.1C975.042 251.1 977.577 250.753 979.96 250.06V254.285C977.793 254.978 975.258 255.325 972.355 255.325L971.835 257.6ZM1005.09 255L1002.42 242.78H990.721L988.056 255H983.441L993.321 211.32H999.821L1009.7 255H1005.09ZM991.566 238.75H1001.51L996.506 215.805L991.566 238.75ZM992.021 207.355V208.07H988.771V207.225C988.771 205.752 989.139 204.582 989.876 203.715C990.613 202.805 991.631 202.35 992.931 202.35C994.231 202.35 995.639 202.805 997.156 203.715C998.673 204.582 999.669 205.015 1000.15 205.015C1001.1 205.015 1001.58 204.322 1001.58 202.935V202.22H1004.83V203.13C1004.83 204.647 1004.46 205.838 1003.72 206.705C1002.98 207.528 1001.99 207.94 1000.73 207.94C999.518 207.94 998.174 207.507 996.701 206.64C995.228 205.773 994.166 205.34 993.516 205.34C992.519 205.34 992.021 206.012 992.021 207.355ZM1032.09 221.07C1032.09 216.953 1029.95 214.895 1025.66 214.895C1021.41 214.895 1019.29 216.953 1019.29 221.07V245.25C1019.29 249.41 1021.41 251.49 1025.66 251.49C1029.95 251.49 1032.09 249.41 1032.09 245.25V221.07ZM1014.67 221.005C1014.67 217.928 1015.6 215.437 1017.47 213.53C1019.33 211.623 1022.06 210.67 1025.66 210.67C1029.3 210.67 1032.05 211.623 1033.91 213.53C1035.78 215.437 1036.71 217.928 1036.71 221.005V245.38C1036.71 248.457 1035.78 250.948 1033.91 252.855C1032.05 254.718 1029.3 255.65 1025.66 255.65C1022.02 255.65 1019.27 254.718 1017.4 252.855C1015.58 250.948 1014.67 248.457 1014.67 245.38V221.005ZM1074.7 221.2C1074.7 217.3 1072.64 215.35 1068.52 215.35H1061.96V250.905H1068.52C1072.64 250.905 1074.7 248.912 1074.7 244.925V221.2ZM1057.34 211.32H1068.78C1072.25 211.32 1074.87 212.208 1076.65 213.985C1078.43 215.762 1079.31 218.145 1079.31 221.135V245.055C1079.31 248.132 1078.45 250.558 1076.71 252.335C1074.98 254.112 1072.38 255 1068.91 255H1057.34V211.32ZM1087.56 211.32H1106.47V215.415H1092.17V230.95H1104.65V235.045H1092.17V250.905H1106.47V255H1087.56V211.32ZM1143.06 221.2C1143.06 217.3 1141 215.35 1136.89 215.35H1130.32V250.905H1136.89C1141 250.905 1143.06 248.912 1143.06 244.925V221.2ZM1125.71 211.32H1137.15C1140.61 211.32 1143.24 212.208 1145.01 213.985C1146.79 215.762 1147.68 218.145 1147.68 221.135V245.055C1147.68 248.132 1146.81 250.558 1145.08 252.335C1143.34 254.112 1140.74 255 1137.28 255H1125.71V211.32ZM1172.69 221.07C1172.69 216.953 1170.55 214.895 1166.26 214.895C1162.01 214.895 1159.89 216.953 1159.89 221.07V245.25C1159.89 249.41 1162.01 251.49 1166.26 251.49C1170.55 251.49 1172.69 249.41 1172.69 245.25V221.07ZM1155.27 221.005C1155.27 217.928 1156.2 215.437 1158.07 213.53C1159.93 211.623 1162.66 210.67 1166.26 210.67C1169.9 210.67 1172.65 211.623 1174.51 213.53C1176.38 215.437 1177.31 217.928 1177.31 221.005V245.38C1177.31 248.457 1176.38 250.948 1174.51 252.855C1172.65 254.718 1169.9 255.65 1166.26 255.65C1162.62 255.65 1159.87 254.718 1158 252.855C1156.18 250.948 1155.27 248.457 1155.27 245.38V221.005ZM1185.63 211.32H1204.54V215.415H1190.24V230.95H1202.72V235.045H1190.24V250.905H1204.54V255H1185.63V211.32ZM1230.83 247.59L1230.38 233.225V211.32H1234.99V255H1229.66L1220.69 232.38C1220.35 231.47 1218.64 226.942 1215.56 218.795L1215.95 233.095V255H1211.46V211.32H1216.79C1223.68 228.827 1228.36 240.917 1230.83 247.59ZM1254.56 257.6C1255.86 257.687 1256.92 258.098 1257.74 258.835C1258.57 259.572 1258.98 260.655 1258.98 262.085C1258.98 263.558 1258.44 264.707 1257.35 265.53C1256.27 266.397 1254.97 266.83 1253.45 266.83C1251.98 266.83 1250.81 266.678 1249.94 266.375V263.775C1250.68 264.078 1251.61 264.23 1252.74 264.23C1254.95 264.23 1256.05 263.428 1256.05 261.825C1256.05 260.265 1254.91 259.485 1252.61 259.485H1251.76L1252.61 255.195C1246.41 254.588 1243.31 251.555 1243.31 246.095V220.225C1243.31 214.072 1247.21 210.995 1255.01 210.995C1257.53 210.995 1260.04 211.342 1262.55 212.035V216.325C1260 215.588 1257.44 215.22 1254.88 215.22C1252.33 215.22 1250.53 215.675 1249.49 216.585C1248.45 217.452 1247.93 218.752 1247.93 220.485V245.9C1247.93 247.59 1248.45 248.89 1249.49 249.8C1250.57 250.667 1252.44 251.1 1255.08 251.1C1257.77 251.1 1260.3 250.753 1262.68 250.06V254.285C1260.52 254.978 1257.98 255.325 1255.08 255.325L1254.56 257.6ZM1287.81 255L1285.15 242.78H1273.45L1270.78 255H1266.17L1276.05 211.32H1282.55L1292.43 255H1287.81ZM1274.29 238.75H1284.24L1279.23 215.805L1274.29 238.75ZM1295.38 220.16C1295.38 217.3 1296.33 215.068 1298.24 213.465C1300.15 211.818 1302.81 210.995 1306.24 210.995C1309.7 210.995 1312.63 211.363 1315.01 212.1V216.52C1312.76 215.697 1310.01 215.285 1306.76 215.285C1302.29 215.285 1300.06 216.975 1300.06 220.355V223.475C1300.06 224.992 1300.34 226.183 1300.91 227.05C1301.51 227.917 1302.51 228.74 1303.9 229.52L1311.44 233.745C1314.95 235.652 1316.7 238.533 1316.7 242.39V245.9C1316.7 248.89 1315.68 251.208 1313.65 252.855C1311.61 254.502 1308.66 255.325 1304.81 255.325C1300.99 255.325 1297.96 254.892 1295.71 254.025V249.605C1298.26 250.558 1301.17 251.035 1304.42 251.035C1309.53 251.035 1312.09 249.237 1312.09 245.64V242.91C1312.09 241.48 1311.83 240.353 1311.31 239.53C1310.79 238.707 1309.85 237.927 1308.51 237.19L1301.04 233.095C1297.27 231.058 1295.38 228.025 1295.38 223.995V220.16ZM1353.24 211.32V215.415H1344.79V255H1340.11V215.415H1331.66V211.32H1353.24ZM1369.34 237.45H1362.9V255H1358.29V211.32H1368.88C1372.35 211.32 1374.97 212.208 1376.75 213.985C1378.52 215.718 1379.41 218.102 1379.41 221.135V227.57C1379.41 232.25 1377.55 235.283 1373.82 236.67L1380.78 255H1375.71L1369.34 237.45ZM1362.9 233.42H1368.69C1372.76 233.42 1374.8 231.448 1374.8 227.505V221.33C1374.8 217.387 1372.76 215.415 1368.69 215.415H1362.9V233.42ZM1404.76 221.07C1404.76 216.953 1402.62 214.895 1398.33 214.895C1394.08 214.895 1391.96 216.953 1391.96 221.07V245.25C1391.96 249.41 1394.08 251.49 1398.33 251.49C1402.62 251.49 1404.76 249.41 1404.76 245.25V221.07ZM1387.34 221.005C1387.34 217.928 1388.27 215.437 1390.14 213.53C1392 211.623 1394.73 210.67 1398.33 210.67C1401.97 210.67 1404.72 211.623 1406.58 213.53C1408.45 215.437 1409.38 217.928 1409.38 221.005V245.38C1409.38 248.457 1408.45 250.948 1406.58 252.855C1404.72 254.718 1401.97 255.65 1398.33 255.65C1394.69 255.65 1391.94 254.718 1390.07 252.855C1388.25 250.948 1387.34 248.457 1387.34 245.38V221.005ZM1434.21 221.395C1434.21 217.408 1432.15 215.415 1428.03 215.415H1422.31V235.89H1428.03C1432.15 235.89 1434.21 233.918 1434.21 229.975V221.395ZM1417.7 211.32H1428.29C1431.72 211.32 1434.32 212.208 1436.09 213.985C1437.91 215.762 1438.82 218.145 1438.82 221.135V230.17C1438.82 233.203 1437.94 235.608 1436.16 237.385C1434.38 239.118 1431.76 239.985 1428.29 239.985H1422.31V255H1417.7V211.32ZM1446.26 211.32H1450.88V255H1446.26V211.32ZM1459.2 220.225C1459.2 214.072 1463.1 210.995 1470.9 210.995C1473.41 210.995 1475.92 211.342 1478.44 212.035V216.325C1475.88 215.588 1473.32 215.22 1470.77 215.22C1468.21 215.22 1466.41 215.675 1465.37 216.585C1464.33 217.452 1463.81 218.752 1463.81 220.485V245.9C1463.81 247.59 1464.33 248.89 1465.37 249.8C1466.46 250.667 1468.32 251.1 1470.96 251.1C1473.65 251.1 1476.18 250.753 1478.57 250.06V254.285C1476.4 254.978 1473.84 255.325 1470.9 255.325C1463.1 255.325 1459.2 252.248 1459.2 246.095V220.225ZM1503.69 255L1501.03 242.78H1489.33L1486.66 255H1482.05L1491.93 211.32H1498.43L1508.31 255H1503.69ZM1490.17 238.75H1500.12L1495.11 215.805L1490.17 238.75ZM1513.93 211.32H1518.55V255H1513.93V211.32ZM1524.85 220.16C1524.85 217.3 1525.8 215.068 1527.71 213.465C1529.62 211.818 1532.28 210.995 1535.7 210.995C1539.17 210.995 1542.1 211.363 1544.48 212.1V216.52C1542.23 215.697 1539.47 215.285 1536.22 215.285C1531.76 215.285 1529.53 216.975 1529.53 220.355V223.475C1529.53 224.992 1529.81 226.183 1530.37 227.05C1530.98 227.917 1531.98 228.74 1533.36 229.52L1540.9 233.745C1544.41 235.652 1546.17 238.533 1546.17 242.39V245.9C1546.17 248.89 1545.15 251.208 1543.11 252.855C1541.08 254.502 1538.13 255.325 1534.27 255.325C1530.46 255.325 1527.43 254.892 1525.17 254.025V249.605C1527.73 250.558 1530.63 251.035 1533.88 251.035C1539 251.035 1541.55 249.237 1541.55 245.64V242.91C1541.55 241.48 1541.29 240.353 1540.77 239.53C1540.25 238.707 1539.32 237.927 1537.98 237.19L1530.5 233.095C1526.73 231.058 1524.85 228.025 1524.85 223.995V220.16Z" fill="#464646"/>
<path d="M370.27 111.79H338.55C338.55 104.597 341.93 101 348.69 101H414.08C414.08 108.193 410.7 111.79 403.94 111.79H382.49V183.03C382.49 186.323 381.45 188.837 379.37 190.57C377.29 192.303 374.257 193.17 370.27 193.17V111.79ZM427.778 106.72C427.778 105.073 428.341 103.73 429.468 102.69C430.681 101.563 432.198 101 434.018 101H469.898C478.304 101 484.978 103.47 489.918 108.41C494.944 113.263 497.458 119.763 497.458 127.91C497.458 138.137 492.994 145.373 484.068 149.62V150.01C487.968 151.657 490.958 154.17 493.038 157.55C495.118 160.843 496.158 164.873 496.158 169.64V183.03C496.158 186.323 495.118 188.837 493.038 190.57C490.958 192.303 487.924 193.17 483.938 193.17V170.42C483.938 165.307 482.768 161.45 480.428 158.85C478.174 156.163 474.794 154.82 470.288 154.82H439.868V183.03C439.868 186.323 438.828 188.837 436.748 190.57C434.754 192.303 431.764 193.17 427.778 193.17V106.72ZM469.508 144.29C474.274 144.29 478.044 142.817 480.818 139.87C483.678 136.923 485.108 132.893 485.108 127.78C485.108 122.58 483.764 118.593 481.078 115.82C478.391 113.047 474.534 111.66 469.508 111.66H439.868V144.29H469.508ZM546.645 193.17C539.452 193.17 532.995 191.783 527.275 189.01C521.642 186.15 517.222 182.25 514.015 177.31C510.809 172.283 509.205 166.737 509.205 160.67V132.07C509.205 126.003 510.809 120.543 514.015 115.69C517.222 110.75 521.642 106.893 527.275 104.12C532.995 101.26 539.452 99.83 546.645 99.83C553.925 99.83 560.382 101.26 566.015 104.12C571.735 106.893 576.199 110.75 579.405 115.69C582.612 120.543 584.215 126.003 584.215 132.07V160.67C584.215 166.737 582.612 172.283 579.405 177.31C576.199 182.25 571.735 186.15 566.015 189.01C560.295 191.783 553.839 193.17 546.645 193.17ZM546.645 182.51C554.705 182.51 560.989 180.517 565.495 176.53C570.002 172.543 572.255 167.213 572.255 160.54V132.33C572.255 125.657 570.002 120.37 565.495 116.47C560.989 112.483 554.705 110.49 546.645 110.49C538.672 110.49 532.432 112.483 527.925 116.47C523.419 120.37 521.165 125.657 521.165 132.33V160.54C521.165 167.213 523.419 172.543 527.925 176.53C532.432 180.517 538.672 182.51 546.645 182.51ZM599.164 106.72C599.164 105.073 599.728 103.73 600.854 102.69C602.068 101.563 603.584 101 605.404 101H643.364C649.084 101 654.154 102.213 658.574 104.64C662.994 106.98 666.418 110.317 668.844 114.65C671.271 118.897 672.484 123.793 672.484 129.34C672.484 135.06 671.271 140.087 668.844 144.42C666.504 148.753 663.124 152.09 658.704 154.43C654.284 156.77 649.171 157.94 643.364 157.94H611.384V183.03C611.384 186.323 610.344 188.837 608.264 190.57C606.184 192.303 603.151 193.17 599.164 193.17V106.72ZM643.364 147.15C648.564 147.15 652.681 145.59 655.714 142.47C658.748 139.263 660.264 134.887 660.264 129.34C660.264 123.967 658.704 119.72 655.584 116.6C652.551 113.393 648.478 111.79 643.364 111.79H611.384V147.15H643.364ZM689.997 109.97C689.997 106.763 691.037 104.293 693.117 102.56C695.284 100.74 698.317 99.83 702.217 99.83V183.03C702.217 186.237 701.134 188.75 698.967 190.57C696.887 192.303 693.897 193.17 689.997 193.17V109.97ZM759.341 193.17C752.061 193.17 745.561 191.827 739.841 189.14C734.121 186.367 729.657 182.553 726.451 177.7C723.331 172.76 721.771 167.17 721.771 160.93V131.81C721.771 125.57 723.331 120.023 726.451 115.17C729.657 110.317 734.077 106.547 739.711 103.86C745.344 101.173 751.801 99.83 759.081 99.83C766.361 99.83 772.817 101 778.451 103.34C784.084 105.593 788.461 108.757 791.581 112.83C794.787 116.903 796.391 121.583 796.391 126.87C796.391 129.47 795.524 131.507 793.791 132.98C792.057 134.453 789.761 135.19 786.901 135.19C786.294 135.19 785.384 135.103 784.171 134.93C784.344 133.89 784.431 132.243 784.431 129.99C784.431 126.263 783.347 122.927 781.181 119.98C779.101 117.033 776.111 114.737 772.211 113.09C768.397 111.443 764.021 110.62 759.081 110.62C754.227 110.62 749.894 111.53 746.081 113.35C742.267 115.083 739.277 117.597 737.111 120.89C735.031 124.097 733.991 127.737 733.991 131.81V160.93C733.991 165.09 735.031 168.817 737.111 172.11C739.277 175.317 742.267 177.83 746.081 179.65C749.981 181.47 754.401 182.38 759.341 182.38C764.367 182.38 768.831 181.557 772.731 179.91C776.631 178.263 779.664 176.01 781.831 173.15C783.997 170.203 785.081 166.823 785.081 163.01C785.081 161.623 784.994 159.977 784.821 158.07C786.034 157.897 786.901 157.81 787.421 157.81C790.281 157.81 792.577 158.633 794.311 160.28C796.131 161.927 797.041 164.137 797.041 166.91C797.041 172.023 795.437 176.573 792.231 180.56C789.024 184.547 784.561 187.667 778.841 189.92C773.207 192.087 766.707 193.17 759.341 193.17ZM817.008 193.17C814.408 192.65 812.371 191.567 810.898 189.92C809.425 188.187 808.688 186.107 808.688 183.68C808.688 182.033 809.078 180.3 809.858 178.48L840.928 103.73C841.968 101.13 843.961 99.83 846.908 99.83C849.681 99.83 851.631 101.13 852.758 103.73L883.828 178.48C884.608 180.3 884.998 182.033 884.998 183.68C884.998 186.02 884.261 188.057 882.788 189.79C881.315 191.523 879.278 192.65 876.678 193.17L865.498 166H828.188L817.008 193.17ZM861.728 155.47L844.958 112.96L843.918 113.35L846.258 119.33L831.958 155.47H861.728ZM906.286 192C904.553 192 903.036 191.393 901.736 190.18C900.523 188.88 899.916 187.363 899.916 185.63V109.97C899.916 103.21 903.99 99.83 912.136 99.83V181.21H952.046C955.08 181.21 957.42 182.163 959.066 184.07C960.713 185.89 961.536 188.533 961.536 192H906.286ZM1011.32 109.97C1011.32 106.763 1012.36 104.293 1014.44 102.56C1016.6 100.74 1019.64 99.83 1023.54 99.83V183.03C1023.54 186.237 1022.45 188.75 1020.29 190.57C1018.21 192.303 1015.22 193.17 1011.32 193.17V109.97ZM1044.39 110.36C1044.39 107.067 1045.39 104.51 1047.38 102.69C1049.46 100.783 1052.32 99.83 1055.96 99.83L1106.4 176.53L1107.31 175.75L1103.54 169.51V99.83C1107.53 99.83 1110.52 100.697 1112.51 102.43C1114.59 104.163 1115.63 106.677 1115.63 109.97V183.55C1115.63 186.323 1114.63 188.62 1112.64 190.44C1110.73 192.26 1108.26 193.17 1105.23 193.17L1053.62 114.78L1052.71 115.56L1056.48 121.8V183.03C1056.48 186.323 1055.44 188.837 1053.36 190.57C1051.37 192.303 1048.38 193.17 1044.39 193.17V110.36ZM1133.89 106.72C1133.89 105.073 1134.5 103.73 1135.71 102.69C1136.92 101.563 1138.4 101 1140.13 101H1198.11C1198.11 104.64 1197.37 107.327 1195.9 109.06C1194.43 110.793 1192.17 111.66 1189.14 111.66H1146.11V140.13H1182.51C1182.51 143.77 1181.77 146.457 1180.3 148.19C1178.83 149.923 1176.57 150.79 1173.54 150.79H1146.11V183.29C1146.11 186.67 1145.11 189.183 1143.12 190.83C1141.13 192.39 1138.05 193.17 1133.89 193.17V106.72ZM1240.06 193.17C1232.87 193.17 1226.41 191.783 1220.69 189.01C1215.06 186.15 1210.64 182.25 1207.43 177.31C1204.23 172.283 1202.62 166.737 1202.62 160.67V132.07C1202.62 126.003 1204.23 120.543 1207.43 115.69C1210.64 110.75 1215.06 106.893 1220.69 104.12C1226.41 101.26 1232.87 99.83 1240.06 99.83C1247.34 99.83 1253.8 101.26 1259.43 104.12C1265.15 106.893 1269.62 110.75 1272.82 115.69C1276.03 120.543 1277.63 126.003 1277.63 132.07V160.67C1277.63 166.737 1276.03 172.283 1272.82 177.31C1269.62 182.25 1265.15 186.15 1259.43 189.01C1253.71 191.783 1247.26 193.17 1240.06 193.17ZM1240.06 182.51C1248.12 182.51 1254.41 180.517 1258.91 176.53C1263.42 172.543 1265.67 167.213 1265.67 160.54V132.33C1265.67 125.657 1263.42 120.37 1258.91 116.47C1254.41 112.483 1248.12 110.49 1240.06 110.49C1232.09 110.49 1225.85 112.483 1221.34 116.47C1216.84 120.37 1214.58 125.657 1214.58 132.33V160.54C1214.58 167.213 1216.84 172.543 1221.34 176.53C1225.85 180.517 1232.09 182.51 1240.06 182.51ZM1292.58 106.72C1292.58 105.073 1293.15 103.73 1294.27 102.69C1295.49 101.563 1297 101 1298.82 101H1334.7C1343.11 101 1349.78 103.47 1354.72 108.41C1359.75 113.263 1362.26 119.763 1362.26 127.91C1362.26 138.137 1357.8 145.373 1348.87 149.62V150.01C1352.77 151.657 1355.76 154.17 1357.84 157.55C1359.92 160.843 1360.96 164.873 1360.96 169.64V183.03C1360.96 186.323 1359.92 188.837 1357.84 190.57C1355.76 192.303 1352.73 193.17 1348.74 193.17V170.42C1348.74 165.307 1347.57 161.45 1345.23 158.85C1342.98 156.163 1339.6 154.82 1335.09 154.82H1304.67V183.03C1304.67 186.323 1303.63 188.837 1301.55 190.57C1299.56 192.303 1296.57 193.17 1292.58 193.17V106.72ZM1334.31 144.29C1339.08 144.29 1342.85 142.817 1345.62 139.87C1348.48 136.923 1349.91 132.893 1349.91 127.78C1349.91 122.58 1348.57 118.593 1345.88 115.82C1343.2 113.047 1339.34 111.66 1334.31 111.66H1304.67V144.29H1334.31ZM1379.16 109.97C1379.16 106.763 1380.25 104.293 1382.41 102.56C1384.58 100.74 1387.57 99.83 1391.38 99.83L1422.84 175.36L1420.37 181.47L1421.28 181.86L1454.56 99.83C1458.38 99.83 1461.37 100.74 1463.53 102.56C1465.79 104.38 1466.91 106.893 1466.91 110.1V193.17C1458.85 193.17 1454.82 189.833 1454.82 183.16V128.43L1458.2 119.46L1457.16 119.2L1428.17 189.66C1427.74 190.7 1427.05 191.523 1426.09 192.13C1425.14 192.823 1424.14 193.17 1423.1 193.17C1421.98 193.17 1420.94 192.867 1419.98 192.26C1419.03 191.653 1418.34 190.787 1417.9 189.66L1388.91 119.07L1387.87 119.46L1391.25 128.3V183.16C1391.25 186.453 1390.21 188.967 1388.13 190.7C1386.14 192.347 1383.15 193.17 1379.16 193.17V109.97ZM1485.17 106.72C1485.17 105.073 1485.78 103.73 1486.99 102.69C1488.2 101.563 1489.68 101 1491.41 101H1549C1549 104.64 1548.26 107.327 1546.79 109.06C1545.32 110.793 1543.02 111.66 1539.9 111.66H1497.39V140.78H1533.79C1533.79 144.42 1533.05 147.107 1531.58 148.84C1530.11 150.573 1527.85 151.44 1524.82 151.44H1497.39V181.34H1542.63C1545.66 181.34 1547.92 182.207 1549.39 183.94C1550.86 185.673 1551.6 188.36 1551.6 192H1491.41C1489.68 192 1488.2 191.48 1486.99 190.44C1485.78 189.313 1485.17 187.927 1485.17 186.28V106.72Z" fill="#464646"/>
</svg>
