<svg width="240" height="80" viewBox="0 0 240 80" fill="none" xmlns="http://www.w3.org/2000/svg">
  <rect width="240" height="80" fill=""/>
  <path d="M46.84 57C46.7817 57 46.7362 56.9837 46.7035 56.951C46.6708 56.9183 46.6545 56.8728 46.6545 56.8145V52.6705C46.6545 52.6122 46.6708 52.5667 46.7035 52.534C46.7362 52.5013 46.7817 52.485 46.84 52.485C46.896 52.485 46.9403 52.5013 46.973 52.534C47.0057 52.5667 47.022 52.6122 47.022 52.6705V56.8145C47.022 56.8728 47.0057 56.9183 46.973 56.951C46.9403 56.9837 46.896 57 46.84 57ZM48.5148 57C48.3911 57 48.3293 56.9382 48.3293 56.8145V52.674C48.3293 52.5503 48.3911 52.4885 48.5148 52.4885C48.5801 52.4885 48.6431 52.5247 48.7038 52.597L51.6683 56.405H51.5843V52.674C51.5843 52.5503 51.6461 52.4885 51.7698 52.4885C51.8911 52.4885 51.9518 52.5503 51.9518 52.674V56.8145C51.9518 56.9382 51.8911 57 51.7698 57C51.7021 57 51.6391 56.9638 51.5808 56.8915L48.6128 53.0835H48.6968V56.8145C48.6968 56.9382 48.6361 57 48.5148 57ZM53.4435 57C53.3198 57 53.258 56.9382 53.258 56.8145V52.674C53.258 52.5503 53.3198 52.4885 53.4435 52.4885H55.967C56.0253 52.4885 56.0697 52.5048 56.1 52.5375C56.1327 52.5678 56.149 52.6133 56.149 52.674C56.149 52.7953 56.0883 52.856 55.967 52.856H53.6255V54.5325H55.2215C55.3452 54.5325 55.407 54.5932 55.407 54.7145C55.407 54.8382 55.3452 54.9 55.2215 54.9H53.6255V56.8145C53.6255 56.9382 53.5648 57 53.4435 57ZM58.1025 57C57.5962 57 57.2263 56.8833 56.993 56.65C56.7597 56.4167 56.643 56.0468 56.643 55.5405V53.9445C56.643 53.4335 56.7597 53.0625 56.993 52.8315C57.2263 52.5982 57.5938 52.4838 58.0955 52.4885H58.9425C59.4488 52.4885 59.8175 52.6052 60.0485 52.8385C60.2818 53.0718 60.3985 53.4417 60.3985 53.948V55.5405C60.3985 56.0468 60.2818 56.4167 60.0485 56.65C59.8175 56.8833 59.4488 57 58.9425 57H58.1025ZM58.1025 56.6325H58.9425C59.2108 56.6325 59.4243 56.5975 59.583 56.5275C59.7417 56.4575 59.856 56.3432 59.926 56.1845C59.996 56.0258 60.031 55.8112 60.031 55.5405V53.948C60.031 53.6797 59.996 53.4662 59.926 53.3075C59.856 53.1488 59.7417 53.0345 59.583 52.9645C59.4243 52.8922 59.2108 52.856 58.9425 52.856H58.0955C57.8272 52.8537 57.6137 52.8875 57.455 52.9575C57.2987 53.0252 57.1855 53.1395 57.1155 53.3005C57.0455 53.4592 57.0105 53.6738 57.0105 53.9445V55.5405C57.0105 55.8112 57.0455 56.0258 57.1155 56.1845C57.1855 56.3432 57.2998 56.4575 57.4585 56.5275C57.6172 56.5975 57.8318 56.6325 58.1025 56.6325ZM64.6635 57.007C64.6122 57.0373 64.5655 57.0478 64.5235 57.0385C64.4815 57.0292 64.4442 57 64.4115 56.951L63.2635 55.124H61.979V56.8145C61.979 56.9382 61.9184 57 61.797 57C61.6734 57 61.6115 56.9382 61.6115 56.8145V52.674C61.6115 52.5503 61.6734 52.4885 61.797 52.4885H63.435C63.834 52.4885 64.135 52.5912 64.338 52.7965C64.5434 53.0018 64.646 53.304 64.646 53.703V53.913C64.646 54.2653 64.5655 54.5418 64.4045 54.7425C64.2435 54.9432 64.0055 55.0657 63.6905 55.11L64.723 56.755C64.7884 56.8623 64.7685 56.9463 64.6635 57.007ZM61.979 54.7565H63.435C63.729 54.7565 63.9425 54.69 64.0755 54.557C64.2109 54.4217 64.2785 54.207 64.2785 53.913V53.703C64.2785 53.4067 64.2109 53.192 64.0755 53.059C63.9425 52.9237 63.729 52.856 63.435 52.856H61.979V54.7565ZM65.9464 57C65.8228 57 65.7609 56.9382 65.7609 56.8145V52.674C65.7609 52.5503 65.8228 52.4885 65.9464 52.4885C66.0351 52.4885 66.1051 52.5293 66.1564 52.611L67.8994 55.2745L67.8154 55.285L69.5584 52.611C69.6074 52.5293 69.6809 52.4885 69.7789 52.4885C69.8886 52.4885 69.9434 52.5503 69.9434 52.674V56.8145C69.9434 56.9382 69.8828 57 69.7614 57C69.6378 57 69.5759 56.9382 69.5759 56.8145V53.0415L69.6844 53.0765L68.0674 55.5405C68.0161 55.6198 67.9426 55.6595 67.8469 55.6595C67.7629 55.6595 67.6953 55.6198 67.6439 55.5405L66.0269 53.0765L66.1284 53.115V56.8145C66.1284 56.9382 66.0678 57 65.9464 57ZM70.8967 56.9825C70.7847 56.9335 70.7509 56.8518 70.7952 56.7375L72.5312 52.632C72.5685 52.5363 72.6374 52.4885 72.7377 52.4885H72.7587C72.8544 52.4908 72.922 52.5387 72.9617 52.632L74.6977 56.7375C74.7444 56.8518 74.7117 56.9335 74.5997 56.9825C74.4854 57.0292 74.406 56.9965 74.3617 56.8845L73.8962 55.782H71.6037L71.1382 56.8845C71.0915 56.9965 71.011 57.0292 70.8967 56.9825ZM71.7542 55.4145H73.7422L72.7482 53.0695L71.7542 55.4145ZM76.8466 57C76.3403 57 75.9705 56.8833 75.7371 56.65C75.5038 56.4167 75.3871 56.0468 75.3871 55.5405V53.948C75.3871 53.437 75.5026 53.066 75.7336 52.835C75.967 52.604 76.3356 52.4885 76.8396 52.4885H77.6866C78.116 52.4885 78.4356 52.5783 78.6456 52.758C78.8556 52.9353 78.9711 53.2212 78.9921 53.6155C78.9991 53.6785 78.9863 53.7263 78.9536 53.759C78.9233 53.7917 78.8778 53.808 78.8171 53.808C78.7005 53.808 78.6363 53.7462 78.6246 53.6225C78.6083 53.3332 78.529 53.1337 78.3866 53.024C78.2443 52.912 78.011 52.856 77.6866 52.856H76.8396C76.5713 52.856 76.3578 52.891 76.1991 52.961C76.0405 53.0287 75.9261 53.143 75.8561 53.304C75.7885 53.4627 75.7546 53.6773 75.7546 53.948V55.5405C75.7546 55.8112 75.7896 56.0258 75.8596 56.1845C75.9296 56.3432 76.044 56.4575 76.2026 56.5275C76.3613 56.5975 76.576 56.6325 76.8466 56.6325H77.6866C78.011 56.6325 78.2443 56.5777 78.3866 56.468C78.529 56.356 78.6083 56.1553 78.6246 55.866C78.6363 55.7423 78.7005 55.6805 78.8171 55.6805C78.8778 55.6805 78.9233 55.698 78.9536 55.733C78.9863 55.7657 78.9991 55.8123 78.9921 55.873C78.9711 56.2673 78.8556 56.5543 78.6456 56.734C78.4356 56.9113 78.116 57 77.6866 57H76.8466ZM77.3716 58.4245C76.968 58.4245 76.7661 58.2227 76.7661 57.819C76.7661 57.7047 76.8233 57.6475 76.9376 57.6475C77.052 57.6475 77.1091 57.7047 77.1091 57.819C77.1091 57.924 77.1266 57.994 77.1616 58.029C77.1966 58.064 77.2666 58.0815 77.3716 58.0815C77.5303 58.0815 77.6365 58.0535 77.6901 57.9975C77.7461 57.9415 77.7741 57.8353 77.7741 57.679C77.7741 57.63 77.7636 57.5903 77.7426 57.56C77.7216 57.532 77.675 57.4935 77.6026 57.4445C77.5583 57.4165 77.5093 57.3803 77.4556 57.336C77.4043 57.2917 77.3588 57.2333 77.3191 57.161C77.2818 57.091 77.2631 57.0023 77.2631 56.895C77.2631 56.7807 77.3203 56.7235 77.4346 56.7235C77.549 56.7235 77.6061 56.7807 77.6061 56.895C77.6061 56.9533 77.6178 56.9988 77.6411 57.0315C77.6645 57.0665 77.7146 57.1097 77.7916 57.161C77.8546 57.203 77.9246 57.2613 78.0016 57.336C78.0786 57.413 78.1171 57.5273 78.1171 57.679C78.1171 57.9333 78.0565 58.1212 77.9351 58.2425C77.8161 58.3638 77.6283 58.4245 77.3716 58.4245ZM81.5019 57C80.9956 57 80.6258 56.8833 80.3924 56.65C80.1591 56.4167 80.0424 56.0468 80.0424 55.5405V53.9445C80.0424 53.4335 80.1591 53.0625 80.3924 52.8315C80.6258 52.5982 80.9933 52.4838 81.4949 52.4885H82.3419C82.8483 52.4885 83.2169 52.6052 83.4479 52.8385C83.6813 53.0718 83.7979 53.4417 83.7979 53.948V55.5405C83.7979 56.0468 83.6813 56.4167 83.4479 56.65C83.2169 56.8833 82.8483 57 82.3419 57H81.5019ZM81.5019 56.6325H82.3419C82.6103 56.6325 82.8238 56.5975 82.9824 56.5275C83.1411 56.4575 83.2554 56.3432 83.3254 56.1845C83.3954 56.0258 83.4304 55.8112 83.4304 55.5405V53.948C83.4304 53.6797 83.3954 53.4662 83.3254 53.3075C83.2554 53.1488 83.1411 53.0345 82.9824 52.9645C82.8238 52.8922 82.6103 52.856 82.3419 52.856H81.4949C81.2266 52.8537 81.0131 52.8875 80.8544 52.9575C80.6981 53.0252 80.5849 53.1395 80.5149 53.3005C80.4449 53.4592 80.4099 53.6738 80.4099 53.9445V55.5405C80.4099 55.8112 80.4449 56.0258 80.5149 56.1845C80.5849 56.3432 80.6993 56.4575 80.8579 56.5275C81.0166 56.5975 81.2313 56.6325 81.5019 56.6325ZM82.3559 51.9285C82.2229 51.9285 82.1156 51.8982 82.0339 51.8375C81.9546 51.7768 81.8893 51.7208 81.8379 51.6695C81.7843 51.6135 81.7364 51.5715 81.6944 51.5435C81.6524 51.5132 81.5964 51.498 81.5264 51.498C81.4401 51.498 81.3748 51.5213 81.3304 51.568C81.2884 51.6147 81.2511 51.6905 81.2184 51.7955C81.2021 51.8352 81.1788 51.8678 81.1484 51.8935C81.1204 51.9168 81.0819 51.9238 81.0329 51.9145C80.9629 51.9052 80.9186 51.876 80.8999 51.827C80.8813 51.7757 80.8801 51.7313 80.8964 51.694C80.9571 51.512 81.0388 51.3778 81.1414 51.2915C81.2441 51.2052 81.3724 51.162 81.5264 51.162C81.6711 51.162 81.7866 51.1935 81.8729 51.2565C81.9593 51.3195 82.0281 51.379 82.0794 51.435C82.1424 51.4957 82.1914 51.5365 82.2264 51.5575C82.2638 51.5785 82.3069 51.589 82.3559 51.589C82.4329 51.589 82.4936 51.5668 82.5379 51.5225C82.5823 51.4782 82.6208 51.4058 82.6534 51.3055C82.6698 51.2612 82.6908 51.2285 82.7164 51.2075C82.7444 51.1842 82.7864 51.1748 82.8424 51.1795C82.9101 51.1888 82.9533 51.218 82.9719 51.267C82.9906 51.316 82.9929 51.3592 82.9789 51.3965C82.9159 51.5668 82.8343 51.6987 82.7339 51.792C82.6359 51.883 82.5099 51.9285 82.3559 51.9285ZM85.1964 57C85.0728 57 85.0109 56.9382 85.0109 56.8145V52.674C85.0109 52.5503 85.0728 52.4885 85.1964 52.4885H87.8179C87.9416 52.4885 88.0034 52.5503 88.0034 52.674C88.0034 52.7953 87.9416 52.856 87.8179 52.856H85.3784V54.5325H86.9919C87.1156 54.5325 87.1774 54.5932 87.1774 54.7145C87.1774 54.8382 87.1156 54.9 86.9919 54.9H85.3784V56.6325H87.8179C87.9416 56.6325 88.0034 56.6932 88.0034 56.8145C88.0034 56.9382 87.9416 57 87.8179 57H85.1964ZM90.0933 56.993C89.6756 56.993 89.3653 56.9008 89.1623 56.7165C88.9616 56.5298 88.8543 56.237 88.8403 55.838C88.8379 55.782 88.8531 55.7377 88.8858 55.705C88.9208 55.67 88.9663 55.6525 89.0223 55.6525C89.0783 55.6525 89.1226 55.6688 89.1553 55.7015C89.1879 55.7342 89.2066 55.7785 89.2113 55.8345C89.2206 56.1285 89.2906 56.3338 89.4213 56.4505C89.5519 56.5672 89.7759 56.6255 90.0933 56.6255H91.1013C91.4326 56.6255 91.6624 56.5613 91.7908 56.433C91.9214 56.3023 91.9868 56.0737 91.9868 55.747C91.9868 55.4157 91.9214 55.1858 91.7908 55.0575C91.6624 54.9268 91.4326 54.8615 91.1013 54.8615H90.1423C89.7316 54.8615 89.4306 54.7658 89.2393 54.5745C89.0479 54.3832 88.9523 54.0833 88.9523 53.675C88.9523 53.2667 89.0468 52.9668 89.2358 52.7755C89.4271 52.5842 89.7269 52.4885 90.1353 52.4885H91.1153C91.5073 52.4885 91.7978 52.576 91.9868 52.751C92.1781 52.926 92.2808 53.2013 92.2948 53.577C92.2994 53.633 92.2843 53.6785 92.2493 53.7135C92.2166 53.7462 92.1711 53.7625 92.1128 53.7625C92.0591 53.7625 92.0159 53.7462 91.9833 53.7135C91.9506 53.6808 91.9319 53.6365 91.9273 53.5805C91.9179 53.3122 91.8526 53.1243 91.7313 53.017C91.6099 52.9097 91.4046 52.856 91.1153 52.856H90.1353C89.8296 52.856 89.6173 52.9167 89.4983 53.038C89.3793 53.157 89.3198 53.3693 89.3198 53.675C89.3198 53.9807 89.3793 54.1942 89.4983 54.3155C89.6196 54.4345 89.8343 54.494 90.1423 54.494H91.1013C91.5353 54.494 91.8526 54.5955 92.0533 54.7985C92.2539 54.9992 92.3543 55.3153 92.3543 55.747C92.3543 56.1787 92.2539 56.4948 92.0533 56.6955C91.8526 56.8938 91.5353 56.993 91.1013 56.993H90.0933ZM95.5119 57C95.3882 57 95.3264 56.9382 95.3264 56.8145V52.674C95.3264 52.5503 95.3882 52.4885 95.5119 52.4885H97.1499C97.5489 52.4885 97.8499 52.5912 98.0529 52.7965C98.2582 53.0018 98.3609 53.304 98.3609 53.703V53.913C98.3609 54.3097 98.2582 54.6107 98.0529 54.816C97.8499 55.0213 97.5489 55.124 97.1499 55.124H95.6939V56.8145C95.6939 56.9382 95.6332 57 95.5119 57ZM95.6939 54.7565H97.1499C97.4439 54.7565 97.6574 54.69 97.7904 54.557C97.9257 54.4217 97.9934 54.207 97.9934 53.913V53.703C97.9934 53.4067 97.9257 53.192 97.7904 53.059C97.6574 52.9237 97.4439 52.856 97.1499 52.856H95.6939V54.7565ZM98.4797 56.9825C98.3677 56.9335 98.3339 56.8518 98.3782 56.7375L100.114 52.632C100.152 52.5363 100.22 52.4885 100.321 52.4885H100.342C100.437 52.4908 100.505 52.5387 100.545 52.632L102.281 56.7375C102.327 56.8518 102.295 56.9335 102.183 56.9825C102.068 57.0292 101.989 56.9965 101.945 56.8845L101.479 55.782H99.1867L98.7212 56.8845C98.6745 56.9965 98.594 57.0292 98.4797 56.9825ZM99.3372 55.4145H101.325L100.331 53.0695L99.3372 55.4145ZM106.185 57.007C106.134 57.0373 106.087 57.0478 106.045 57.0385C106.003 57.0292 105.966 57 105.933 56.951L104.785 55.124H103.501V56.8145C103.501 56.9382 103.44 57 103.319 57C103.195 57 103.133 56.9382 103.133 56.8145V52.674C103.133 52.5503 103.195 52.4885 103.319 52.4885H104.957C105.356 52.4885 105.657 52.5912 105.86 52.7965C106.065 53.0018 106.168 53.304 106.168 53.703V53.913C106.168 54.2653 106.087 54.5418 105.926 54.7425C105.765 54.9432 105.527 55.0657 105.212 55.11L106.245 56.755C106.31 56.8623 106.29 56.9463 106.185 57.007ZM103.501 54.7565H104.957C105.251 54.7565 105.464 54.69 105.597 54.557C105.732 54.4217 105.8 54.207 105.8 53.913V53.703C105.8 53.4067 105.732 53.192 105.597 53.059C105.464 52.9237 105.251 52.856 104.957 52.856H103.501V54.7565ZM106.929 56.9825C106.817 56.9335 106.783 56.8518 106.827 56.7375L108.563 52.632C108.601 52.5363 108.67 52.4885 108.77 52.4885H108.791C108.887 52.4908 108.954 52.5387 108.994 52.632L110.73 56.7375C110.777 56.8518 110.744 56.9335 110.632 56.9825C110.518 57.0292 110.438 56.9965 110.394 56.8845L109.928 55.782H107.636L107.17 56.8845C107.124 56.9965 107.043 57.0292 106.929 56.9825ZM107.786 55.4145H109.774L108.78 53.0695L107.786 55.4145ZM113.525 57C113.401 57 113.339 56.9382 113.339 56.8145V52.674C113.339 52.5503 113.401 52.4885 113.525 52.4885H115.163C115.562 52.4885 115.863 52.5912 116.066 52.7965C116.271 53.0018 116.374 53.304 116.374 53.703V53.913C116.374 54.3097 116.271 54.6107 116.066 54.816C115.863 55.0213 115.562 55.124 115.163 55.124H113.707V56.8145C113.707 56.9382 113.646 57 113.525 57ZM113.707 54.7565H115.163C115.457 54.7565 115.67 54.69 115.803 54.557C115.938 54.4217 116.006 54.207 116.006 53.913V53.703C116.006 53.4067 115.938 53.192 115.803 53.059C115.67 52.9237 115.457 52.856 115.163 52.856H113.707V54.7565ZM120.315 57.007C120.264 57.0373 120.217 57.0478 120.175 57.0385C120.133 57.0292 120.096 57 120.063 56.951L118.915 55.124H117.63V56.8145C117.63 56.9382 117.57 57 117.448 57C117.325 57 117.263 56.9382 117.263 56.8145V52.674C117.263 52.5503 117.325 52.4885 117.448 52.4885H119.086C119.485 52.4885 119.786 52.5912 119.989 52.7965C120.195 53.0018 120.297 53.304 120.297 53.703V53.913C120.297 54.2653 120.217 54.5418 120.056 54.7425C119.895 54.9432 119.657 55.0657 119.342 55.11L120.374 56.755C120.44 56.8623 120.42 56.9463 120.315 57.007ZM117.63 54.7565H119.086C119.38 54.7565 119.594 54.69 119.727 54.557C119.862 54.4217 119.93 54.207 119.93 53.913V53.703C119.93 53.4067 119.862 53.192 119.727 53.059C119.594 52.9237 119.38 52.856 119.086 52.856H117.63V54.7565ZM121.598 57C121.474 57 121.412 56.9382 121.412 56.8145V52.674C121.412 52.5503 121.474 52.4885 121.598 52.4885H124.219C124.343 52.4885 124.405 52.5503 124.405 52.674C124.405 52.7953 124.343 52.856 124.219 52.856H121.78V54.5325H123.393C123.517 54.5325 123.579 54.5932 123.579 54.7145C123.579 54.8382 123.517 54.9 123.393 54.9H121.78V56.6325H124.219C124.343 56.6325 124.405 56.6932 124.405 56.8145C124.405 56.9382 124.343 57 124.219 57H121.598ZM126.785 57C126.706 57 126.649 56.958 126.614 56.874L124.797 52.751C124.767 52.6833 124.767 52.6273 124.797 52.583C124.83 52.5387 124.874 52.5107 124.93 52.499C125.026 52.4757 125.092 52.5107 125.13 52.604L126.88 56.573H126.75L128.49 52.604C128.527 52.5107 128.595 52.4757 128.693 52.499C128.753 52.5107 128.798 52.5387 128.826 52.583C128.854 52.6273 128.854 52.6833 128.826 52.751L127.002 56.874C126.967 56.958 126.908 57 126.824 57H126.785ZM129.78 57C129.657 57 129.595 56.9382 129.595 56.8145V52.674C129.595 52.5503 129.657 52.4885 129.78 52.4885H132.402C132.526 52.4885 132.587 52.5503 132.587 52.674C132.587 52.7953 132.526 52.856 132.402 52.856H129.962V54.5325H131.576C131.7 54.5325 131.761 54.5932 131.761 54.7145C131.761 54.8382 131.7 54.9 131.576 54.9H129.962V56.6325H132.402C132.526 56.6325 132.587 56.6932 132.587 56.8145C132.587 56.9382 132.526 57 132.402 57H129.78ZM133.704 57C133.581 57 133.519 56.9382 133.519 56.8145V52.674C133.519 52.5503 133.581 52.4885 133.704 52.4885C133.77 52.4885 133.833 52.5247 133.893 52.597L136.858 56.405H136.774V52.674C136.774 52.5503 136.836 52.4885 136.959 52.4885C137.081 52.4885 137.141 52.5503 137.141 52.674V56.8145C137.141 56.9382 137.081 57 136.959 57C136.892 57 136.829 56.9638 136.77 56.8915L133.802 53.0835H133.886V56.8145C133.886 56.9382 133.826 57 133.704 57ZM139.812 57C139.306 57 138.936 56.8833 138.703 56.65C138.47 56.4167 138.353 56.0468 138.353 55.5405V53.948C138.353 53.437 138.468 53.066 138.699 52.835C138.933 52.604 139.301 52.4885 139.805 52.4885H140.652C141.082 52.4885 141.401 52.5783 141.611 52.758C141.821 52.9353 141.937 53.2212 141.958 53.6155C141.965 53.6785 141.952 53.7263 141.919 53.759C141.889 53.7917 141.844 53.808 141.783 53.808C141.666 53.808 141.602 53.7462 141.59 53.6225C141.574 53.3332 141.495 53.1337 141.352 53.024C141.21 52.912 140.977 52.856 140.652 52.856H139.805C139.537 52.856 139.324 52.891 139.165 52.961C139.006 53.0287 138.892 53.143 138.822 53.304C138.754 53.4627 138.72 53.6773 138.72 53.948V55.5405C138.72 55.8112 138.755 56.0258 138.825 56.1845C138.895 56.3432 139.01 56.4575 139.168 56.5275C139.327 56.5975 139.542 56.6325 139.812 56.6325H140.652C140.977 56.6325 141.21 56.5777 141.352 56.468C141.495 56.356 141.574 56.1553 141.59 55.866C141.602 55.7423 141.666 55.6805 141.783 55.6805C141.844 55.6805 141.889 55.698 141.919 55.733C141.952 55.7657 141.965 55.8123 141.958 55.873C141.937 56.2673 141.821 56.5543 141.611 56.734C141.401 56.9113 141.082 57 140.652 57H139.812ZM140.337 58.4245C139.934 58.4245 139.732 58.2227 139.732 57.819C139.732 57.7047 139.789 57.6475 139.903 57.6475C140.018 57.6475 140.075 57.7047 140.075 57.819C140.075 57.924 140.092 57.994 140.127 58.029C140.162 58.064 140.232 58.0815 140.337 58.0815C140.496 58.0815 140.602 58.0535 140.656 57.9975C140.712 57.9415 140.74 57.8353 140.74 57.679C140.74 57.63 140.729 57.5903 140.708 57.56C140.687 57.532 140.641 57.4935 140.568 57.4445C140.524 57.4165 140.475 57.3803 140.421 57.336C140.37 57.2917 140.325 57.2333 140.285 57.161C140.248 57.091 140.229 57.0023 140.229 56.895C140.229 56.7807 140.286 56.7235 140.4 56.7235C140.515 56.7235 140.572 56.7807 140.572 56.895C140.572 56.9533 140.584 56.9988 140.607 57.0315C140.63 57.0665 140.68 57.1097 140.757 57.161C140.82 57.203 140.89 57.2613 140.967 57.336C141.044 57.413 141.083 57.5273 141.083 57.679C141.083 57.9333 141.022 58.1212 140.901 58.2425C140.782 58.3638 140.594 58.4245 140.337 58.4245ZM142.749 56.9825C142.637 56.9335 142.603 56.8518 142.648 56.7375L144.384 52.632C144.421 52.5363 144.49 52.4885 144.59 52.4885H144.611C144.707 52.4908 144.775 52.5387 144.814 52.632L146.55 56.7375C146.597 56.8518 146.564 56.9335 146.452 56.9825C146.338 57.0292 146.259 56.9965 146.214 56.8845L145.749 55.782H143.456L142.991 56.8845C142.944 56.9965 142.864 57.0292 142.749 56.9825ZM143.607 55.4145H145.595L144.601 53.0695L143.607 55.4145ZM145.035 51.9285C144.902 51.9285 144.794 51.8982 144.713 51.8375C144.633 51.7768 144.568 51.7208 144.517 51.6695C144.463 51.6135 144.415 51.5715 144.373 51.5435C144.331 51.5132 144.275 51.498 144.205 51.498C144.119 51.498 144.054 51.5213 144.009 51.568C143.967 51.6147 143.93 51.6905 143.897 51.7955C143.881 51.8352 143.858 51.8678 143.827 51.8935C143.799 51.9168 143.761 51.9238 143.712 51.9145C143.642 51.9052 143.597 51.876 143.579 51.827C143.56 51.7757 143.559 51.7313 143.575 51.694C143.636 51.512 143.718 51.3778 143.82 51.2915C143.923 51.2052 144.051 51.162 144.205 51.162C144.35 51.162 144.465 51.1935 144.552 51.2565C144.638 51.3195 144.707 51.379 144.758 51.435C144.821 51.4957 144.87 51.5365 144.905 51.5575C144.943 51.5785 144.986 51.589 145.035 51.589C145.112 51.589 145.172 51.5668 145.217 51.5225C145.261 51.4782 145.3 51.4058 145.332 51.3055C145.349 51.2612 145.37 51.2285 145.395 51.2075C145.423 51.1842 145.465 51.1748 145.521 51.1795C145.589 51.1888 145.632 51.218 145.651 51.267C145.669 51.316 145.672 51.3592 145.658 51.3965C145.595 51.5668 145.513 51.6987 145.413 51.792C145.315 51.883 145.189 51.9285 145.035 51.9285ZM148.699 57C148.193 57 147.823 56.8833 147.59 56.65C147.356 56.4167 147.24 56.0468 147.24 55.5405V53.9445C147.24 53.4335 147.356 53.0625 147.59 52.8315C147.823 52.5982 148.191 52.4838 148.692 52.4885H149.539C150.046 52.4885 150.414 52.6052 150.645 52.8385C150.879 53.0718 150.995 53.4417 150.995 53.948V55.5405C150.995 56.0468 150.879 56.4167 150.645 56.65C150.414 56.8833 150.046 57 149.539 57H148.699ZM148.699 56.6325H149.539C149.808 56.6325 150.021 56.5975 150.18 56.5275C150.338 56.4575 150.453 56.3432 150.523 56.1845C150.593 56.0258 150.628 55.8112 150.628 55.5405V53.948C150.628 53.6797 150.593 53.4662 150.523 53.3075C150.453 53.1488 150.338 53.0345 150.18 52.9645C150.021 52.8922 149.808 52.856 149.539 52.856H148.692C148.424 52.8537 148.21 52.8875 148.052 52.9575C147.895 53.0252 147.782 53.1395 147.712 53.3005C147.642 53.4592 147.607 53.6738 147.607 53.9445V55.5405C147.607 55.8112 147.642 56.0258 147.712 56.1845C147.782 56.3432 147.897 56.4575 148.055 56.5275C148.214 56.5975 148.429 56.6325 148.699 56.6325ZM154.151 57C154.027 57 153.965 56.9382 153.965 56.8145V52.674C153.965 52.5503 154.027 52.4885 154.151 52.4885H155.838C156.419 52.4885 156.841 52.6215 157.105 52.8875C157.371 53.1535 157.504 53.577 157.504 54.158V55.3305C157.504 55.9115 157.371 56.335 157.105 56.601C156.841 56.867 156.419 57 155.838 57H154.151ZM154.333 56.6325H155.838C156.155 56.6325 156.408 56.5905 156.597 56.5065C156.788 56.4225 156.926 56.286 157.01 56.097C157.094 55.9057 157.136 55.6502 157.136 55.3305V54.158C157.136 53.8407 157.094 53.5875 157.01 53.3985C156.926 53.2072 156.788 53.0695 156.597 52.9855C156.408 52.8992 156.155 52.856 155.838 52.856H154.333V56.6325ZM158.902 57C158.778 57 158.716 56.9382 158.716 56.8145V52.674C158.716 52.5503 158.778 52.4885 158.902 52.4885H161.523C161.647 52.4885 161.709 52.5503 161.709 52.674C161.709 52.7953 161.647 52.856 161.523 52.856H159.084V54.5325H160.697C160.821 54.5325 160.883 54.5932 160.883 54.7145C160.883 54.8382 160.821 54.9 160.697 54.9H159.084V56.6325H161.523C161.647 56.6325 161.709 56.6932 161.709 56.8145C161.709 56.9382 161.647 57 161.523 57H158.902ZM164.582 57C164.459 57 164.397 56.9382 164.397 56.8145V52.674C164.397 52.5503 164.459 52.4885 164.582 52.4885H166.269C166.85 52.4885 167.273 52.6215 167.536 52.8875C167.802 53.1535 167.935 53.577 167.935 54.158V55.3305C167.935 55.9115 167.802 56.335 167.536 56.601C167.273 56.867 166.85 57 166.269 57H164.582ZM164.764 56.6325H166.269C166.587 56.6325 166.84 56.5905 167.029 56.5065C167.22 56.4225 167.358 56.286 167.442 56.097C167.526 55.9057 167.568 55.6502 167.568 55.3305V54.158C167.568 53.8407 167.526 53.5875 167.442 53.3985C167.358 53.2072 167.22 53.0695 167.029 52.9855C166.84 52.8992 166.587 52.856 166.269 52.856H164.764V56.6325ZM170.513 57C170.006 57 169.636 56.8833 169.403 56.65C169.17 56.4167 169.053 56.0468 169.053 55.5405V53.9445C169.053 53.4335 169.17 53.0625 169.403 52.8315C169.636 52.5982 170.004 52.4838 170.506 52.4885H171.353C171.859 52.4885 172.228 52.6052 172.459 52.8385C172.692 53.0718 172.809 53.4417 172.809 53.948V55.5405C172.809 56.0468 172.692 56.4167 172.459 56.65C172.228 56.8833 171.859 57 171.353 57H170.513ZM170.513 56.6325H171.353C171.621 56.6325 171.834 56.5975 171.993 56.5275C172.152 56.4575 172.266 56.3432 172.336 56.1845C172.406 56.0258 172.441 55.8112 172.441 55.5405V53.948C172.441 53.6797 172.406 53.4662 172.336 53.3075C172.266 53.1488 172.152 53.0345 171.993 52.9645C171.834 52.8922 171.621 52.856 171.353 52.856H170.506C170.237 52.8537 170.024 52.8875 169.865 52.9575C169.709 53.0252 169.596 53.1395 169.526 53.3005C169.456 53.4592 169.421 53.6738 169.421 53.9445V55.5405C169.421 55.8112 169.456 56.0258 169.526 56.1845C169.596 56.3432 169.71 56.4575 169.869 56.5275C170.027 56.5975 170.242 56.6325 170.513 56.6325ZM174.207 57C174.084 57 174.022 56.9382 174.022 56.8145V52.674C174.022 52.5503 174.084 52.4885 174.207 52.4885H176.829C176.952 52.4885 177.014 52.5503 177.014 52.674C177.014 52.7953 176.952 52.856 176.829 52.856H174.389V54.5325H176.003C176.126 54.5325 176.188 54.5932 176.188 54.7145C176.188 54.8382 176.126 54.9 176.003 54.9H174.389V56.6325H176.829C176.952 56.6325 177.014 56.6932 177.014 56.8145C177.014 56.9382 176.952 57 176.829 57H174.207ZM178.131 57C178.007 57 177.946 56.9382 177.946 56.8145V52.674C177.946 52.5503 178.007 52.4885 178.131 52.4885C178.196 52.4885 178.259 52.5247 178.32 52.597L181.285 56.405H181.201V52.674C181.201 52.5503 181.262 52.4885 181.386 52.4885C181.507 52.4885 181.568 52.5503 181.568 52.674V56.8145C181.568 56.9382 181.507 57 181.386 57C181.318 57 181.255 56.9638 181.197 56.8915L178.229 53.0835H178.313V56.8145C178.313 56.9382 178.252 57 178.131 57ZM184.239 57C183.733 57 183.363 56.8833 183.13 56.65C182.896 56.4167 182.78 56.0468 182.78 55.5405V53.948C182.78 53.437 182.895 53.066 183.126 52.835C183.36 52.604 183.728 52.4885 184.232 52.4885H185.079C185.509 52.4885 185.828 52.5783 186.038 52.758C186.248 52.9353 186.364 53.2212 186.385 53.6155C186.392 53.6785 186.379 53.7263 186.346 53.759C186.316 53.7917 186.27 53.808 186.21 53.808C186.093 53.808 186.029 53.7462 186.017 53.6225C186.001 53.3332 185.922 53.1337 185.779 53.024C185.637 52.912 185.404 52.856 185.079 52.856H184.232C183.964 52.856 183.75 52.891 183.592 52.961C183.433 53.0287 183.319 53.143 183.249 53.304C183.181 53.4627 183.147 53.6773 183.147 53.948V55.5405C183.147 55.8112 183.182 56.0258 183.252 56.1845C183.322 56.3432 183.437 56.4575 183.595 56.5275C183.754 56.5975 183.969 56.6325 184.239 56.6325H185.079C185.404 56.6325 185.637 56.5777 185.779 56.468C185.922 56.356 186.001 56.1553 186.017 55.866C186.029 55.7423 186.093 55.6805 186.21 55.6805C186.27 55.6805 186.316 55.698 186.346 55.733C186.379 55.7657 186.392 55.8123 186.385 55.873C186.364 56.2673 186.248 56.5543 186.038 56.734C185.828 56.9113 185.509 57 185.079 57H184.239ZM184.764 58.4245C184.361 58.4245 184.159 58.2227 184.159 57.819C184.159 57.7047 184.216 57.6475 184.33 57.6475C184.445 57.6475 184.502 57.7047 184.502 57.819C184.502 57.924 184.519 57.994 184.554 58.029C184.589 58.064 184.659 58.0815 184.764 58.0815C184.923 58.0815 185.029 58.0535 185.083 57.9975C185.139 57.9415 185.167 57.8353 185.167 57.679C185.167 57.63 185.156 57.5903 185.135 57.56C185.114 57.532 185.068 57.4935 184.995 57.4445C184.951 57.4165 184.902 57.3803 184.848 57.336C184.797 57.2917 184.751 57.2333 184.712 57.161C184.674 57.091 184.656 57.0023 184.656 56.895C184.656 56.7807 184.713 56.7235 184.827 56.7235C184.942 56.7235 184.999 56.7807 184.999 56.895C184.999 56.9533 185.01 56.9988 185.034 57.0315C185.057 57.0665 185.107 57.1097 185.184 57.161C185.247 57.203 185.317 57.2613 185.394 57.336C185.471 57.413 185.51 57.5273 185.51 57.679C185.51 57.9333 185.449 58.1212 185.328 58.2425C185.209 58.3638 185.021 58.4245 184.764 58.4245ZM187.176 56.9825C187.064 56.9335 187.03 56.8518 187.075 56.7375L188.811 52.632C188.848 52.5363 188.917 52.4885 189.017 52.4885H189.038C189.134 52.4908 189.201 52.5387 189.241 52.632L190.977 56.7375C191.024 56.8518 190.991 56.9335 190.879 56.9825C190.765 57.0292 190.685 56.9965 190.641 56.8845L190.176 55.782H187.883L187.418 56.8845C187.371 56.9965 187.29 57.0292 187.176 56.9825ZM188.034 55.4145H190.022L189.028 53.0695L188.034 55.4145ZM192.776 56.993C192.358 56.993 192.048 56.9008 191.845 56.7165C191.644 56.5298 191.537 56.237 191.523 55.838C191.521 55.782 191.536 55.7377 191.568 55.705C191.603 55.67 191.649 55.6525 191.705 55.6525C191.761 55.6525 191.805 55.6688 191.838 55.7015C191.871 55.7342 191.889 55.7785 191.894 55.8345C191.903 56.1285 191.973 56.3338 192.104 56.4505C192.235 56.5672 192.459 56.6255 192.776 56.6255H193.784C194.115 56.6255 194.345 56.5613 194.473 56.433C194.604 56.3023 194.669 56.0737 194.669 55.747C194.669 55.4157 194.604 55.1858 194.473 55.0575C194.345 54.9268 194.115 54.8615 193.784 54.8615H192.825C192.414 54.8615 192.113 54.7658 191.922 54.5745C191.731 54.3832 191.635 54.0833 191.635 53.675C191.635 53.2667 191.729 52.9668 191.918 52.7755C192.11 52.5842 192.41 52.4885 192.818 52.4885H193.798C194.19 52.4885 194.48 52.576 194.669 52.751C194.861 52.926 194.963 53.2013 194.977 53.577C194.982 53.633 194.967 53.6785 194.932 53.7135C194.899 53.7462 194.854 53.7625 194.795 53.7625C194.742 53.7625 194.699 53.7462 194.666 53.7135C194.633 53.6808 194.615 53.6365 194.61 53.5805C194.601 53.3122 194.535 53.1243 194.414 53.017C194.293 52.9097 194.087 52.856 193.798 52.856H192.818C192.512 52.856 192.3 52.9167 192.181 53.038C192.062 53.157 192.002 53.3693 192.002 53.675C192.002 53.9807 192.062 54.1942 192.181 54.3155C192.302 54.4345 192.517 54.494 192.825 54.494H193.784C194.218 54.494 194.535 54.5955 194.736 54.7985C194.937 54.9992 195.037 55.3153 195.037 55.747C195.037 56.1787 194.937 56.4948 194.736 56.6955C194.535 56.8938 194.218 56.993 193.784 56.993H192.776ZM199.342 57.0035C199.286 57.0035 199.241 56.9872 199.206 56.9545C199.173 56.9218 199.157 56.8775 199.157 56.8215V52.8525H197.669C197.613 52.8525 197.568 52.8362 197.533 52.8035C197.5 52.7708 197.484 52.7265 197.484 52.6705C197.484 52.6145 197.5 52.5702 197.533 52.5375C197.568 52.5025 197.613 52.485 197.669 52.485H201.015C201.071 52.485 201.116 52.5025 201.148 52.5375C201.181 52.5702 201.197 52.6145 201.197 52.6705C201.197 52.7265 201.181 52.7708 201.148 52.8035C201.116 52.8362 201.071 52.8525 201.015 52.8525H199.524V56.8215C199.524 56.8752 199.507 56.9195 199.472 56.9545C199.439 56.9872 199.396 57.0035 199.342 57.0035ZM205.033 57.007C204.981 57.0373 204.935 57.0478 204.893 57.0385C204.851 57.0292 204.813 57 204.781 56.951L203.633 55.124H202.348V56.8145C202.348 56.9382 202.288 57 202.166 57C202.043 57 201.981 56.9382 201.981 56.8145V52.674C201.981 52.5503 202.043 52.4885 202.166 52.4885H203.804C204.203 52.4885 204.504 52.5912 204.707 52.7965C204.913 53.0018 205.015 53.304 205.015 53.703V53.913C205.015 54.2653 204.935 54.5418 204.774 54.7425C204.613 54.9432 204.375 55.0657 204.06 55.11L205.092 56.755C205.158 56.8623 205.138 56.9463 205.033 57.007ZM202.348 54.7565H203.804C204.098 54.7565 204.312 54.69 204.445 54.557C204.58 54.4217 204.648 54.207 204.648 53.913V53.703C204.648 53.4067 204.58 53.192 204.445 53.059C204.312 52.9237 204.098 52.856 203.804 52.856H202.348V54.7565ZM207.495 57C206.989 57 206.619 56.8833 206.386 56.65C206.152 56.4167 206.036 56.0468 206.036 55.5405V53.9445C206.036 53.4335 206.152 53.0625 206.386 52.8315C206.619 52.5982 206.986 52.4838 207.488 52.4885H208.335C208.841 52.4885 209.21 52.6052 209.441 52.8385C209.674 53.0718 209.791 53.4417 209.791 53.948V55.5405C209.791 56.0468 209.674 56.4167 209.441 56.65C209.21 56.8833 208.841 57 208.335 57H207.495ZM207.495 56.6325H208.335C208.603 56.6325 208.817 56.5975 208.976 56.5275C209.134 56.4575 209.249 56.3432 209.319 56.1845C209.389 56.0258 209.424 55.8112 209.424 55.5405V53.948C209.424 53.6797 209.389 53.4662 209.319 53.3075C209.249 53.1488 209.134 53.0345 208.976 52.9645C208.817 52.8922 208.603 52.856 208.335 52.856H207.488C207.22 52.8537 207.006 52.8875 206.848 52.9575C206.691 53.0252 206.578 53.1395 206.508 53.3005C206.438 53.4592 206.403 53.6738 206.403 53.9445V55.5405C206.403 55.8112 206.438 56.0258 206.508 56.1845C206.578 56.3432 206.692 56.4575 206.851 56.5275C207.01 56.5975 207.224 56.6325 207.495 56.6325ZM211.19 57C211.066 57 211.004 56.9382 211.004 56.8145V52.674C211.004 52.5503 211.066 52.4885 211.19 52.4885H212.828C213.227 52.4885 213.528 52.5912 213.731 52.7965C213.936 53.0018 214.039 53.304 214.039 53.703V53.913C214.039 54.3097 213.936 54.6107 213.731 54.816C213.528 55.0213 213.227 55.124 212.828 55.124H211.372V56.8145C211.372 56.9382 211.311 57 211.19 57ZM211.372 54.7565H212.828C213.122 54.7565 213.335 54.69 213.468 54.557C213.603 54.4217 213.671 54.207 213.671 53.913V53.703C213.671 53.4067 213.603 53.192 213.468 53.059C213.335 52.9237 213.122 52.856 212.828 52.856H211.372V54.7565ZM215.113 57C215.055 57 215.01 56.9837 214.977 56.951C214.944 56.9183 214.928 56.8728 214.928 56.8145V52.6705C214.928 52.6122 214.944 52.5667 214.977 52.534C215.01 52.5013 215.055 52.485 215.113 52.485C215.169 52.485 215.214 52.5013 215.246 52.534C215.279 52.5667 215.295 52.6122 215.295 52.6705V56.8145C215.295 56.8728 215.279 56.9183 215.246 56.951C215.214 56.9837 215.169 57 215.113 57ZM217.968 57C217.461 57 217.092 56.8833 216.858 56.65C216.625 56.4167 216.508 56.0468 216.508 55.5405V53.948C216.508 53.437 216.624 53.066 216.855 52.835C217.088 52.604 217.457 52.4885 217.961 52.4885H218.808C219.237 52.4885 219.557 52.5783 219.767 52.758C219.977 52.9353 220.092 53.2212 220.113 53.6155C220.12 53.6785 220.107 53.7263 220.075 53.759C220.044 53.7917 219.999 53.808 219.938 53.808C219.822 53.808 219.757 53.7462 219.746 53.6225C219.729 53.3332 219.65 53.1337 219.508 53.024C219.365 52.912 219.132 52.856 218.808 52.856H217.961C217.692 52.856 217.479 52.891 217.32 52.961C217.162 53.0287 217.047 53.143 216.977 53.304C216.91 53.4627 216.876 53.6773 216.876 53.948V55.5405C216.876 55.8112 216.911 56.0258 216.981 56.1845C217.051 56.3432 217.165 56.4575 217.324 56.5275C217.482 56.5975 217.697 56.6325 217.968 56.6325H218.808C219.132 56.6325 219.365 56.5777 219.508 56.468C219.65 56.356 219.729 56.1553 219.746 55.866C219.757 55.7423 219.822 55.6805 219.938 55.6805C219.999 55.6805 220.044 55.698 220.075 55.733C220.107 55.7657 220.12 55.8123 220.113 55.873C220.092 56.2673 219.977 56.5543 219.767 56.734C219.557 56.9113 219.237 57 218.808 57H217.968ZM220.905 56.9825C220.793 56.9335 220.759 56.8518 220.803 56.7375L222.539 52.632C222.576 52.5363 222.645 52.4885 222.746 52.4885H222.767C222.862 52.4908 222.93 52.5387 222.97 52.632L224.706 56.7375C224.752 56.8518 224.72 56.9335 224.608 56.9825C224.493 57.0292 224.414 56.9965 224.37 56.8845L223.904 55.782H221.612L221.146 56.8845C221.099 56.9965 221.019 57.0292 220.905 56.9825ZM221.762 55.4145H223.75L222.756 53.0695L221.762 55.4145ZM225.743 57C225.685 57 225.639 56.9837 225.607 56.951C225.574 56.9183 225.558 56.8728 225.558 56.8145V52.6705C225.558 52.6122 225.574 52.5667 225.607 52.534C225.639 52.5013 225.685 52.485 225.743 52.485C225.799 52.485 225.844 52.5013 225.876 52.534C225.909 52.5667 225.925 52.6122 225.925 52.6705V56.8145C225.925 56.8728 225.909 56.9183 225.876 56.951C225.844 56.9837 225.799 57 225.743 57ZM228.391 56.993C227.973 56.993 227.663 56.9008 227.46 56.7165C227.259 56.5298 227.152 56.237 227.138 55.838C227.136 55.782 227.151 55.7377 227.184 55.705C227.219 55.67 227.264 55.6525 227.32 55.6525C227.376 55.6525 227.42 55.6688 227.453 55.7015C227.486 55.7342 227.504 55.7785 227.509 55.8345C227.518 56.1285 227.588 56.3338 227.719 56.4505C227.85 56.5672 228.074 56.6255 228.391 56.6255H229.399C229.73 56.6255 229.96 56.5613 230.089 56.433C230.219 56.3023 230.285 56.0737 230.285 55.747C230.285 55.4157 230.219 55.1858 230.089 55.0575C229.96 54.9268 229.73 54.8615 229.399 54.8615H228.44C228.029 54.8615 227.728 54.7658 227.537 54.5745C227.346 54.3832 227.25 54.0833 227.25 53.675C227.25 53.2667 227.345 52.9668 227.534 52.7755C227.725 52.5842 228.025 52.4885 228.433 52.4885H229.413C229.805 52.4885 230.096 52.576 230.285 52.751C230.476 52.926 230.579 53.2013 230.593 53.577C230.597 53.633 230.582 53.6785 230.547 53.7135C230.514 53.7462 230.469 53.7625 230.411 53.7625C230.357 53.7625 230.314 53.7462 230.281 53.7135C230.248 53.6808 230.23 53.6365 230.225 53.5805C230.216 53.3122 230.15 53.1243 230.029 53.017C229.908 52.9097 229.702 52.856 229.413 52.856H228.433C228.127 52.856 227.915 52.9167 227.796 53.038C227.677 53.157 227.618 53.3693 227.618 53.675C227.618 53.9807 227.677 54.1942 227.796 54.3155C227.917 54.4345 228.132 54.494 228.44 54.494H229.399C229.833 54.494 230.15 54.5955 230.351 54.7985C230.552 54.9992 230.652 55.3153 230.652 55.747C230.652 56.1787 230.552 56.4948 230.351 56.6955C230.15 56.8938 229.833 56.993 229.399 56.993H228.391Z" fill="white"/>
  <path d="M50.58 32.66H45.7C45.7 31.5533 46.22 31 47.26 31H57.32C57.32 32.1067 56.8 32.66 55.76 32.66H52.46V43.62C52.46 44.1267 52.3 44.5133 51.98 44.78C51.66 45.0467 51.1933 45.18 50.58 45.18V32.66ZM59.4273 31.88C59.4273 31.6267 59.514 31.42 59.6873 31.26C59.874 31.0867 60.1073 31 60.3873 31H65.9073C67.2007 31 68.2273 31.38 68.9873 32.14C69.7607 32.8867 70.1473 33.8867 70.1473 35.14C70.1473 36.7133 69.4607 37.8267 68.0873 38.48V38.54C68.6873 38.7933 69.1473 39.18 69.4673 39.7C69.7873 40.2067 69.9473 40.8267 69.9473 41.56V43.62C69.9473 44.1267 69.7873 44.5133 69.4673 44.78C69.1473 45.0467 68.6807 45.18 68.0673 45.18V41.68C68.0673 40.8933 67.8873 40.3 67.5273 39.9C67.1807 39.4867 66.6607 39.28 65.9673 39.28H61.2873V43.62C61.2873 44.1267 61.1273 44.5133 60.8073 44.78C60.5007 45.0467 60.0407 45.18 59.4273 45.18V31.88ZM65.8473 37.66C66.5807 37.66 67.1607 37.4333 67.5873 36.98C68.0273 36.5267 68.2473 35.9067 68.2473 35.12C68.2473 34.32 68.0407 33.7067 67.6273 33.28C67.214 32.8533 66.6207 32.64 65.8473 32.64H61.2873V37.66H65.8473ZM77.7147 45.18C76.608 45.18 75.6147 44.9667 74.7347 44.54C73.868 44.1 73.188 43.5 72.6947 42.74C72.2014 41.9667 71.9547 41.1133 71.9547 40.18V35.78C71.9547 34.8467 72.2014 34.0067 72.6947 33.26C73.188 32.5 73.868 31.9067 74.7347 31.48C75.6147 31.04 76.608 30.82 77.7147 30.82C78.8347 30.82 79.828 31.04 80.6947 31.48C81.5747 31.9067 82.2614 32.5 82.7547 33.26C83.248 34.0067 83.4947 34.8467 83.4947 35.78V40.18C83.4947 41.1133 83.248 41.9667 82.7547 42.74C82.2614 43.5 81.5747 44.1 80.6947 44.54C79.8147 44.9667 78.8214 45.18 77.7147 45.18ZM77.7147 43.54C78.9547 43.54 79.9214 43.2333 80.6147 42.62C81.308 42.0067 81.6547 41.1867 81.6547 40.16V35.82C81.6547 34.7933 81.308 33.98 80.6147 33.38C79.9214 32.7667 78.9547 32.46 77.7147 32.46C76.488 32.46 75.528 32.7667 74.8347 33.38C74.1414 33.98 73.7947 34.7933 73.7947 35.82V40.16C73.7947 41.1867 74.1414 42.0067 74.8347 42.62C75.528 43.2333 76.488 43.54 77.7147 43.54ZM85.7945 31.88C85.7945 31.6267 85.8812 31.42 86.0545 31.26C86.2412 31.0867 86.4745 31 86.7545 31H92.5945C93.4745 31 94.2545 31.1867 94.9345 31.56C95.6145 31.92 96.1412 32.4333 96.5145 33.1C96.8879 33.7533 97.0745 34.5067 97.0745 35.36C97.0745 36.24 96.8879 37.0133 96.5145 37.68C96.1545 38.3467 95.6345 38.86 94.9545 39.22C94.2745 39.58 93.4879 39.76 92.5945 39.76H87.6745V43.62C87.6745 44.1267 87.5145 44.5133 87.1945 44.78C86.8745 45.0467 86.4079 45.18 85.7945 45.18V31.88ZM92.5945 38.1C93.3945 38.1 94.0279 37.86 94.4945 37.38C94.9612 36.8867 95.1945 36.2133 95.1945 35.36C95.1945 34.5333 94.9545 33.88 94.4745 33.4C94.0079 32.9067 93.3812 32.66 92.5945 32.66H87.6745V38.1H92.5945ZM99.7688 32.38C99.7688 31.8867 99.9288 31.5067 100.249 31.24C100.582 30.96 101.049 30.82 101.649 30.82V43.62C101.649 44.1133 101.482 44.5 101.149 44.78C100.829 45.0467 100.369 45.18 99.7688 45.18V32.38ZM110.437 45.18C109.317 45.18 108.317 44.9733 107.437 44.56C106.557 44.1333 105.87 43.5467 105.377 42.8C104.897 42.04 104.657 41.18 104.657 40.22V35.74C104.657 34.78 104.897 33.9267 105.377 33.18C105.87 32.4333 106.55 31.8533 107.417 31.44C108.284 31.0267 109.277 30.82 110.397 30.82C111.517 30.82 112.51 31 113.377 31.36C114.244 31.7067 114.917 32.1933 115.397 32.82C115.89 33.4467 116.137 34.1667 116.137 34.98C116.137 35.38 116.004 35.6933 115.737 35.92C115.47 36.1467 115.117 36.26 114.677 36.26C114.584 36.26 114.444 36.2467 114.257 36.22C114.284 36.06 114.297 35.8067 114.297 35.46C114.297 34.8867 114.13 34.3733 113.797 33.92C113.477 33.4667 113.017 33.1133 112.417 32.86C111.83 32.6067 111.157 32.48 110.397 32.48C109.65 32.48 108.984 32.62 108.397 32.9C107.81 33.1667 107.35 33.5533 107.017 34.06C106.697 34.5533 106.537 35.1133 106.537 35.74V40.22C106.537 40.86 106.697 41.4333 107.017 41.94C107.35 42.4333 107.81 42.82 108.397 43.1C108.997 43.38 109.677 43.52 110.437 43.52C111.21 43.52 111.897 43.3933 112.497 43.14C113.097 42.8867 113.564 42.54 113.897 42.1C114.23 41.6467 114.397 41.1267 114.397 40.54C114.397 40.3267 114.384 40.0733 114.357 39.78C114.544 39.7533 114.677 39.74 114.757 39.74C115.197 39.74 115.55 39.8667 115.817 40.12C116.097 40.3733 116.237 40.7133 116.237 41.14C116.237 41.9267 115.99 42.6267 115.497 43.24C115.004 43.8533 114.317 44.3333 113.437 44.68C112.57 45.0133 111.57 45.18 110.437 45.18ZM119.309 45.18C118.909 45.1 118.596 44.9333 118.369 44.68C118.142 44.4133 118.029 44.0933 118.029 43.72C118.029 43.4667 118.089 43.2 118.209 42.92L122.989 31.42C123.149 31.02 123.456 30.82 123.909 30.82C124.336 30.82 124.636 31.02 124.809 31.42L129.589 42.92C129.709 43.2 129.769 43.4667 129.769 43.72C129.769 44.08 129.656 44.3933 129.429 44.66C129.202 44.9267 128.889 45.1 128.489 45.18L126.769 41H121.029L119.309 45.18ZM126.189 39.38L123.609 32.84L123.449 32.9L123.809 33.82L121.609 39.38H126.189ZM133.044 45C132.777 45 132.544 44.9067 132.344 44.72C132.157 44.52 132.064 44.2867 132.064 44.02V32.38C132.064 31.34 132.691 30.82 133.944 30.82V43.34H140.084C140.551 43.34 140.911 43.4867 141.164 43.78C141.417 44.06 141.544 44.4667 141.544 45H133.044ZM149.202 32.38C149.202 31.8867 149.362 31.5067 149.682 31.24C150.016 30.96 150.482 30.82 151.082 30.82V43.62C151.082 44.1133 150.916 44.5 150.582 44.78C150.262 45.0467 149.802 45.18 149.202 45.18V32.38ZM154.291 32.44C154.291 31.9333 154.444 31.54 154.751 31.26C155.071 30.9667 155.511 30.82 156.071 30.82L163.831 42.62L163.971 42.5L163.391 41.54V30.82C164.004 30.82 164.464 30.9533 164.771 31.22C165.091 31.4867 165.251 31.8733 165.251 32.38V43.7C165.251 44.1267 165.097 44.48 164.791 44.76C164.497 45.04 164.117 45.18 163.651 45.18L155.711 33.12L155.571 33.24L156.151 34.2V43.62C156.151 44.1267 155.991 44.5133 155.671 44.78C155.364 45.0467 154.904 45.18 154.291 45.18V32.44ZM168.06 31.88C168.06 31.6267 168.153 31.42 168.34 31.26C168.527 31.0867 168.753 31 169.02 31H177.94C177.94 31.56 177.827 31.9733 177.6 32.24C177.373 32.5067 177.027 32.64 176.56 32.64H169.94V37.02H175.54C175.54 37.58 175.427 37.9933 175.2 38.26C174.973 38.5267 174.627 38.66 174.16 38.66H169.94V43.66C169.94 44.18 169.787 44.5667 169.48 44.82C169.173 45.06 168.7 45.18 168.06 45.18V31.88ZM184.394 45.18C183.288 45.18 182.294 44.9667 181.414 44.54C180.548 44.1 179.868 43.5 179.374 42.74C178.881 41.9667 178.634 41.1133 178.634 40.18V35.78C178.634 34.8467 178.881 34.0067 179.374 33.26C179.868 32.5 180.548 31.9067 181.414 31.48C182.294 31.04 183.288 30.82 184.394 30.82C185.514 30.82 186.508 31.04 187.374 31.48C188.254 31.9067 188.941 32.5 189.434 33.26C189.928 34.0067 190.174 34.8467 190.174 35.78V40.18C190.174 41.1133 189.928 41.9667 189.434 42.74C188.941 43.5 188.254 44.1 187.374 44.54C186.494 44.9667 185.501 45.18 184.394 45.18ZM184.394 43.54C185.634 43.54 186.601 43.2333 187.294 42.62C187.988 42.0067 188.334 41.1867 188.334 40.16V35.82C188.334 34.7933 187.988 33.98 187.294 33.38C186.601 32.7667 185.634 32.46 184.394 32.46C183.168 32.46 182.208 32.7667 181.514 33.38C180.821 33.98 180.474 34.7933 180.474 35.82V40.16C180.474 41.1867 180.821 42.0067 181.514 42.62C182.208 43.2333 183.168 43.54 184.394 43.54ZM192.474 31.88C192.474 31.6267 192.561 31.42 192.734 31.26C192.921 31.0867 193.154 31 193.434 31H198.954C200.248 31 201.274 31.38 202.034 32.14C202.808 32.8867 203.194 33.8867 203.194 35.14C203.194 36.7133 202.508 37.8267 201.134 38.48V38.54C201.734 38.7933 202.194 39.18 202.514 39.7C202.834 40.2067 202.994 40.8267 202.994 41.56V43.62C202.994 44.1267 202.834 44.5133 202.514 44.78C202.194 45.0467 201.728 45.18 201.114 45.18V41.68C201.114 40.8933 200.934 40.3 200.574 39.9C200.228 39.4867 199.708 39.28 199.014 39.28H194.334V43.62C194.334 44.1267 194.174 44.5133 193.854 44.78C193.548 45.0467 193.088 45.18 192.474 45.18V31.88ZM198.894 37.66C199.628 37.66 200.208 37.4333 200.634 36.98C201.074 36.5267 201.294 35.9067 201.294 35.12C201.294 34.32 201.088 33.7067 200.674 33.28C200.261 32.8533 199.668 32.64 198.894 32.64H194.334V37.66H198.894ZM205.795 32.38C205.795 31.8867 205.961 31.5067 206.295 31.24C206.628 30.96 207.088 30.82 207.675 30.82L212.515 42.44L212.135 43.38L212.275 43.44L217.395 30.82C217.981 30.82 218.441 30.96 218.775 31.24C219.121 31.52 219.295 31.9067 219.295 32.4V45.18C218.055 45.18 217.435 44.6667 217.435 43.64V35.22L217.955 33.84L217.795 33.8L213.335 44.64C213.268 44.8 213.161 44.9267 213.015 45.02C212.868 45.1267 212.715 45.18 212.555 45.18C212.381 45.18 212.221 45.1333 212.075 45.04C211.928 44.9467 211.821 44.8133 211.755 44.64L207.295 33.78L207.135 33.84L207.655 35.2V43.64C207.655 44.1467 207.495 44.5333 207.175 44.8C206.868 45.0533 206.408 45.18 205.795 45.18V32.38ZM222.103 31.88C222.103 31.6267 222.196 31.42 222.383 31.26C222.57 31.0867 222.796 31 223.063 31H231.923C231.923 31.56 231.81 31.9733 231.583 32.24C231.356 32.5067 231.003 32.64 230.523 32.64H223.983V37.12H229.583C229.583 37.68 229.47 38.0933 229.243 38.36C229.016 38.6267 228.67 38.76 228.203 38.76H223.983V43.36H230.943C231.41 43.36 231.756 43.4933 231.983 43.76C232.21 44.0267 232.323 44.44 232.323 45H223.063C222.796 45 222.57 44.92 222.383 44.76C222.196 44.5867 222.103 44.3733 222.103 44.12V31.88Z" fill="white"/>
  <path fill-rule="evenodd" clip-rule="evenodd" d="M21.0709 31.7931L9.52551 43.5863C8.08263 42.1121 7.1806 40.0853 7 37.6896C7 35.4786 8.0824 33.2673 9.52551 31.7931L21.2515 20C22.6946 21.4743 23.5964 23.6853 23.5964 25.8965C23.5964 28.1078 22.5143 30.319 21.0711 31.7931H21.0709ZM26.1497 48.1222L37.8216 36.3289C39.2807 37.9873 40.1928 40.0144 40.1928 42.2254C40.1928 44.4366 39.0982 46.6479 37.6395 48.1222L25.9672 59.9152C24.5083 58.441 23.5964 56.2297 23.5964 54.0187C23.5964 51.8074 24.6905 49.5962 26.1497 48.1222V48.1222ZM25.8635 31.7931L29.3097 28.3459L37.8347 20C39.2857 21.4515 40.1926 23.6287 40.1926 25.806C40.1926 27.9832 39.1044 30.1602 37.6532 31.6117L29.3097 39.9576L25.8635 43.4048L20.9665 48.3035L17.5202 51.7507L9.35808 59.9152C7.90683 58.4637 7 56.2865 7 54.1092C7 51.932 8.08838 49.7547 9.5394 48.3035L17.7016 40.1389L20.9662 36.6917L25.8635 31.7931Z" fill="#1292EE"/>
</svg>
